<?xml version="1.0" encoding="utf-8"?><svg xmlns="http://www.w3.org/2000/svg" xmlns:xlink="http://www.w3.org/1999/xlink"><symbol fill="none" viewBox="0 0 24 24" id="email" xmlns="http://www.w3.org/2000/svg"><g clip-path="url(#aa)"><path d="M3 3h18a1 1 0 0 1 1 1v16a1 1 0 0 1-1 1H3a1 1 0 0 1-1-1V4a1 1 0 0 1 1-1Zm17 4.238-7.928 7.1L4 7.216V19h16V7.238ZM4.511 5l7.55 6.662L19.502 5H4.511Z" fill="#fff"/></g><defs><clipPath id="aa"><path fill="#fff" d="M0 0h24v24H0z"/></clipPath></defs></symbol><symbol viewBox="0 0 100 100" id="icons" xmlns="http://www.w3.org/2000/svg"/><symbol viewBox="0 -960 960 960" fill="#EFEFEF" id="lock" xmlns="http://www.w3.org/2000/svg"><path d="M240-80q-33 0-56.5-23.5T160-160v-400q0-33 23.5-56.5T240-640h40v-80q0-83 58.5-141.5T480-920q83 0 141.5 58.5T680-720v80h40q33 0 56.5 23.5T800-560v400q0 33-23.5 56.5T720-80H240Zm0-80h480v-400H240v400Zm240-120q33 0 56.5-23.5T560-360q0-33-23.5-56.5T480-440q-33 0-56.5 23.5T400-360q0 33 23.5 56.5T480-280ZM360-640h240v-80q0-50-35-85t-85-35q-50 0-85 35t-35 85v80ZM240-160v-400 400Z"/></symbol><symbol viewBox="0 -960 960 960" fill="#EFEFEF" id="mail" xmlns="http://www.w3.org/2000/svg"><path d="M160-160q-33 0-56.5-23.5T80-240v-480q0-33 23.5-56.5T160-800h640q33 0 56.5 23.5T880-720v480q0 33-23.5 56.5T800-160H160Zm320-280L160-640v400h640v-400L480-440Zm0-80 320-200H160l320 200ZM160-640v-80 480-400Z"/></symbol><symbol fill="none" viewBox="0 0 24 24" id="padlock" xmlns="http://www.w3.org/2000/svg"><g clip-path="url(#ea)"><path d="M19 10h1a1 1 0 0 1 1 1v10a1 1 0 0 1-1 1H4a1 1 0 0 1-1-1V11a1 1 0 0 1 1-1h1V9a7 7 0 0 1 14 0v1ZM5 12v8h14v-8H5Zm6 2h2v4h-2v-4Zm6-4V9A5 5 0 0 0 7 9v1h10Z" fill="#fff"/></g><defs><clipPath id="ea"><path fill="#fff" d="M0 0h24v24H0z"/></clipPath></defs></symbol></svg>