<?xml version="1.0" encoding="utf-8"?><svg xmlns="http://www.w3.org/2000/svg" xmlns:xlink="http://www.w3.org/1999/xlink"><symbol viewBox="0 -960 960 960" fill="#EFEFEF" id="account_box" xmlns="http://www.w3.org/2000/svg"><path d="M200-246q54-53 125.5-83.5T480-360q83 0 154.5 30.5T760-246v-514H200v514Zm280-194q58 0 99-41t41-99q0-58-41-99t-99-41q-58 0-99 41t-41 99q0 58 41 99t99 41ZM200-120q-33 0-56.5-23.5T120-200v-560q0-33 23.5-56.5T200-840h560q33 0 56.5 23.5T840-760v560q0 33-23.5 56.5T760-120H200Zm69-80h422q-44-39-99.5-59.5T480-280q-56 0-112.5 20.5T269-200Zm211-320q-25 0-42.5-17.5T420-580q0-25 17.5-42.5T480-640q25 0 42.5 17.5T540-580q0 25-17.5 42.5T480-520Zm0 17Z"/></symbol><symbol viewBox="0 -960 960 960" fill="#EFEFEF" id="calendar" xmlns="http://www.w3.org/2000/svg"><path d="M200-80q-33 0-56.5-23.5T120-160v-560q0-33 23.5-56.5T200-800h40v-80h80v80h320v-80h80v80h40q33 0 56.5 23.5T840-720v560q0 33-23.5 56.5T760-80H200Zm0-80h560v-400H200v400Zm0-480h560v-80H200v80Zm0 0v-80 80Z"/></symbol><symbol fill="none" viewBox="0 0 24 24" id="email" xmlns="http://www.w3.org/2000/svg"><g clip-path="url(#ca)"><path d="M3 3h18a1 1 0 0 1 1 1v16a1 1 0 0 1-1 1H3a1 1 0 0 1-1-1V4a1 1 0 0 1 1-1Zm17 4.238-7.928 7.1L4 7.216V19h16V7.238ZM4.511 5l7.55 6.662L19.502 5H4.511Z" fill="#fff"/></g><defs><clipPath id="ca"><path fill="#fff" d="M0 0h24v24H0z"/></clipPath></defs></symbol><symbol viewBox="0 0 100 100" id="icons" xmlns="http://www.w3.org/2000/svg"/><symbol viewBox="0 -960 960 960" fill="#EFEFEF" id="lock" xmlns="http://www.w3.org/2000/svg"><path d="M240-80q-33 0-56.5-23.5T160-160v-400q0-33 23.5-56.5T240-640h40v-80q0-83 58.5-141.5T480-920q83 0 141.5 58.5T680-720v80h40q33 0 56.5 23.5T800-560v400q0 33-23.5 56.5T720-80H240Zm0-80h480v-400H240v400Zm240-120q33 0 56.5-23.5T560-360q0-33-23.5-56.5T480-440q-33 0-56.5 23.5T400-360q0 33 23.5 56.5T480-280ZM360-640h240v-80q0-50-35-85t-85-35q-50 0-85 35t-35 85v80ZM240-160v-400 400Z"/></symbol><symbol viewBox="0 -960 960 960" fill="#EFEFEF" id="mail" xmlns="http://www.w3.org/2000/svg"><path d="M160-160q-33 0-56.5-23.5T80-240v-480q0-33 23.5-56.5T160-800h640q33 0 56.5 23.5T880-720v480q0 33-23.5 56.5T800-160H160Zm320-280L160-640v400h640v-400L480-440Zm0-80 320-200H160l320 200ZM160-640v-80 480-400Z"/></symbol><symbol viewBox="0 -960 960 960" fill="#EFEFEF" id="medical_info" xmlns="http://www.w3.org/2000/svg"><path d="M280-240h80v-80h80v-80h-80v-80h-80v80h-80v80h80v80Zm240-140h240v-60H520v60Zm0 120h160v-60H520v60ZM160-80q-33 0-56.5-23.5T80-160v-440q0-33 23.5-56.5T160-680h200v-120q0-33 23.5-56.5T440-880h80q33 0 56.5 23.5T600-800v120h200q33 0 56.5 23.5T880-600v440q0 33-23.5 56.5T800-80H160Zm0-80h640v-440H600q0 33-23.5 56.5T520-520h-80q-33 0-56.5-23.5T360-600H160v440Zm280-440h80v-200h-80v200Zm40 220Z"/></symbol><symbol fill="none" viewBox="0 0 24 24" id="padlock" xmlns="http://www.w3.org/2000/svg"><g clip-path="url(#ha)"><path d="M19 10h1a1 1 0 0 1 1 1v10a1 1 0 0 1-1 1H4a1 1 0 0 1-1-1V11a1 1 0 0 1 1-1h1V9a7 7 0 0 1 14 0v1ZM5 12v8h14v-8H5Zm6 2h2v4h-2v-4Zm6-4V9A5 5 0 0 0 7 9v1h10Z" fill="#fff"/></g><defs><clipPath id="ha"><path fill="#fff" d="M0 0h24v24H0z"/></clipPath></defs></symbol><symbol viewBox="0 -960 960 960" fill="#EFEFEF" id="person" xmlns="http://www.w3.org/2000/svg"><path d="M480-480q-66 0-113-47t-47-113q0-66 47-113t113-47q66 0 113 47t47 113q0 66-47 113t-113 47ZM160-160v-112q0-34 17.5-62.5T224-378q62-31 126-46.5T480-440q66 0 130 15.5T736-378q29 15 46.5 43.5T800-272v112H160Zm80-80h480v-32q0-11-5.5-20T700-306q-54-27-109-40.5T480-360q-56 0-111 13.5T260-306q-9 5-14.5 14t-5.5 20v32Zm240-320q33 0 56.5-23.5T560-640q0-33-23.5-56.5T480-720q-33 0-56.5 23.5T400-640q0 33 23.5 56.5T480-560Zm0-80Zm0 400Z"/></symbol><symbol viewBox="0 -960 960 960" fill="#EFEFEF" id="phone" xmlns="http://www.w3.org/2000/svg"><path d="M798-120q-125 0-247-54.5T329-329Q229-429 174.5-551T120-798q0-18 12-30t30-12h162q14 0 25 9.5t13 22.5l26 140q2 16-1 27t-11 19l-97 98q20 37 47.5 71.5T387-386q31 31 65 57.5t72 48.5l94-94q9-9 23.5-13.5T670-390l138 28q14 4 23 14.5t9 23.5v162q0 18-12 30t-30 12ZM241-600l66-66-17-94h-89q5 41 14 81t26 79Zm358 358q39 17 79.5 27t81.5 13v-88l-94-19-67 67ZM241-600Zm358 358Z"/></symbol></svg>